<mxfile host="app.diagrams.net" agent="Mozilla/5.0 (X11; Linux x86_64) AppleWebKit/537.36 (KHTML, like Gecko) Chrome/127.0.0.0 Safari/537.36" version="24.7.14">
  <diagram name="Page-1" id="70ogOxzQD_iNOGGRtOv3">
    <mxGraphModel dx="1434" dy="1913" grid="1" gridSize="10" guides="1" tooltips="1" connect="1" arrows="1" fold="1" page="1" pageScale="1" pageWidth="827" pageHeight="1169" math="0" shadow="0">
      <root>
        <mxCell id="0" />
        <mxCell id="1" parent="0" />
        <mxCell id="za1lbg5nmYoDE8rP5T8w-6" value="This is the collection of element spread across nodes of cluster. This is know as RDD." style="rounded=0;whiteSpace=wrap;html=1;" vertex="1" parent="1">
          <mxGeometry x="70" y="220" width="710" height="350" as="geometry" />
        </mxCell>
        <mxCell id="za1lbg5nmYoDE8rP5T8w-7" value="" style="rounded=0;whiteSpace=wrap;html=1;" vertex="1" parent="1">
          <mxGeometry x="100" y="275" width="670" height="90" as="geometry" />
        </mxCell>
        <mxCell id="za1lbg5nmYoDE8rP5T8w-1" value="Element on Executor" style="rounded=0;whiteSpace=wrap;html=1;" vertex="1" parent="1">
          <mxGeometry x="110" y="290" width="120" height="60" as="geometry" />
        </mxCell>
        <mxCell id="za1lbg5nmYoDE8rP5T8w-8" value="" style="rounded=0;whiteSpace=wrap;html=1;" vertex="1" parent="1">
          <mxGeometry x="90" y="445" width="670" height="90" as="geometry" />
        </mxCell>
        <mxCell id="za1lbg5nmYoDE8rP5T8w-2" value="Element on Executor" style="rounded=0;whiteSpace=wrap;html=1;" vertex="1" parent="1">
          <mxGeometry x="220" y="460" width="120" height="60" as="geometry" />
        </mxCell>
        <mxCell id="za1lbg5nmYoDE8rP5T8w-3" value="Element on Executor" style="rounded=0;whiteSpace=wrap;html=1;" vertex="1" parent="1">
          <mxGeometry x="350" y="290" width="120" height="60" as="geometry" />
        </mxCell>
        <mxCell id="za1lbg5nmYoDE8rP5T8w-4" value="Element on Executor" style="rounded=0;whiteSpace=wrap;html=1;" vertex="1" parent="1">
          <mxGeometry x="500" y="460" width="120" height="60" as="geometry" />
        </mxCell>
        <mxCell id="za1lbg5nmYoDE8rP5T8w-5" value="Element on Executor" style="rounded=0;whiteSpace=wrap;html=1;" vertex="1" parent="1">
          <mxGeometry x="610" y="290" width="120" height="60" as="geometry" />
        </mxCell>
        <mxCell id="za1lbg5nmYoDE8rP5T8w-9" value="Node 1" style="text;html=1;align=center;verticalAlign=middle;whiteSpace=wrap;rounded=0;" vertex="1" parent="1">
          <mxGeometry x="380" y="475" width="60" height="30" as="geometry" />
        </mxCell>
        <mxCell id="za1lbg5nmYoDE8rP5T8w-10" value="Node 2" style="text;html=1;align=center;verticalAlign=middle;whiteSpace=wrap;rounded=0;" vertex="1" parent="1">
          <mxGeometry x="510" y="300" width="60" height="30" as="geometry" />
        </mxCell>
        <mxCell id="za1lbg5nmYoDE8rP5T8w-11" value="Cluster Manager" style="rounded=0;whiteSpace=wrap;html=1;" vertex="1" parent="1">
          <mxGeometry x="350" y="70" width="120" height="60" as="geometry" />
        </mxCell>
        <mxCell id="za1lbg5nmYoDE8rP5T8w-12" value="Driver having Spark Context" style="rounded=0;whiteSpace=wrap;html=1;" vertex="1" parent="1">
          <mxGeometry x="350" y="-70" width="120" height="60" as="geometry" />
        </mxCell>
        <mxCell id="za1lbg5nmYoDE8rP5T8w-14" value="" style="endArrow=classic;startArrow=classic;html=1;rounded=0;entryX=0.417;entryY=1;entryDx=0;entryDy=0;entryPerimeter=0;exitX=0.469;exitY=-0.011;exitDx=0;exitDy=0;exitPerimeter=0;" edge="1" parent="1" source="za1lbg5nmYoDE8rP5T8w-6" target="za1lbg5nmYoDE8rP5T8w-11">
          <mxGeometry width="50" height="50" relative="1" as="geometry">
            <mxPoint x="390" y="290" as="sourcePoint" />
            <mxPoint x="440" y="240" as="targetPoint" />
          </mxGeometry>
        </mxCell>
        <mxCell id="za1lbg5nmYoDE8rP5T8w-15" value="" style="endArrow=classic;startArrow=classic;html=1;rounded=0;entryX=0.5;entryY=1;entryDx=0;entryDy=0;" edge="1" parent="1" target="za1lbg5nmYoDE8rP5T8w-12">
          <mxGeometry width="50" height="50" relative="1" as="geometry">
            <mxPoint x="410" y="70" as="sourcePoint" />
            <mxPoint x="410" y="140" as="targetPoint" />
          </mxGeometry>
        </mxCell>
        <mxCell id="za1lbg5nmYoDE8rP5T8w-16" value="" style="endArrow=classic;startArrow=classic;html=1;rounded=0;entryX=1.025;entryY=0.617;entryDx=0;entryDy=0;entryPerimeter=0;" edge="1" parent="1" target="za1lbg5nmYoDE8rP5T8w-12">
          <mxGeometry width="50" height="50" relative="1" as="geometry">
            <mxPoint x="630" y="210" as="sourcePoint" />
            <mxPoint x="440" y="240" as="targetPoint" />
            <Array as="points">
              <mxPoint x="630" y="-30" />
            </Array>
          </mxGeometry>
        </mxCell>
        <mxCell id="za1lbg5nmYoDE8rP5T8w-18" value="RESPONSIBILITY OF DRIVER&lt;div&gt;&lt;br&gt;&lt;/div&gt;&lt;div&gt;- To get the resources from the cluster manager by running the main function creating the spark context that will talk to cluster manager.&lt;/div&gt;&lt;div&gt;- To create tasks that need to be executed in parallel.&lt;/div&gt;&lt;div&gt;- To ship the code to the executor.&lt;/div&gt;&lt;div&gt;- To ship the actual tasks to the executor and communicate with them.&lt;/div&gt;" style="text;html=1;align=left;verticalAlign=top;whiteSpace=wrap;rounded=0;" vertex="1" parent="1">
          <mxGeometry x="640" width="200" height="140" as="geometry" />
        </mxCell>
        <mxCell id="za1lbg5nmYoDE8rP5T8w-19" value="RESPONSIBILITY OF CLUSTER MANAGER&lt;div&gt;&lt;br&gt;&lt;/div&gt;&lt;div&gt;- Allocate and deallocate resources.&lt;/div&gt;&lt;div&gt;- Types in real world, YARN, Kubernetes &amp;amp; Mesos.&lt;/div&gt;" style="text;html=1;align=left;verticalAlign=top;whiteSpace=wrap;rounded=0;" vertex="1" parent="1">
          <mxGeometry x="160" y="50" width="200" height="100" as="geometry" />
        </mxCell>
        <mxCell id="za1lbg5nmYoDE8rP5T8w-20" value="The collection of these element is called rdd." style="text;html=1;align=center;verticalAlign=middle;whiteSpace=wrap;rounded=0;" vertex="1" parent="1">
          <mxGeometry x="145" y="230" width="560" height="30" as="geometry" />
        </mxCell>
        <mxCell id="za1lbg5nmYoDE8rP5T8w-21" value="Nodes can have multiple executors on them, we will have to define the cores and memory of executors." style="text;html=1;align=left;verticalAlign=top;whiteSpace=wrap;rounded=0;" vertex="1" parent="1">
          <mxGeometry x="790" y="220" width="170" height="70" as="geometry" />
        </mxCell>
      </root>
    </mxGraphModel>
  </diagram>
</mxfile>
